# xmcd
# Track frame offsets:
# 150
# 14702
# 33340
# 49243
# 67170
# 83295
# 101985
# 118262
# 136218
# 151977
# 163430
# 183500
# 201456
# 215066
# 228480
#
# Disc length: 3276 seconds
# Revision: 0
# Processed by: cddbd v1.5.2PL0 Copyright (c) Steve Scherf et al.
# Submitted via: VisiTrax 2.11.0.264 - For more info visit www.synapsa.com
#
DISCID=e40cca0f
DTITLE=Country - ASK70-1
DYEAR=2009
DGENRE=Country
TTITLE0=Jackson, Alan - A Woman's Love
TTITLE1=Shelton, Blake - Don't Make Me
TTITLE2=Paisley, Brad - Ticks
TTITLE3=Covington, Bucky - A Different World
TTITLE4=Underwood, Carrie - I'll Stand By You
TTITLE5=Morgan, Craig - Tough
TTITLE6=Worley, Darryl - I Just Came Back From A War
TTITLE7=Church, Eric - Guys Like  Me
TTITLE8=Allan, Gary - A Feeling Like That
TTITLE9=Strait, George - Give It Away
TTITLE10=Wilson, Gretchen - Come To Bed
TTITLE11=Heartland - I Loved Her first
TTITLE12=Ingram, Jack - Lips Of An Angel
TTITLE13=Ingram, Jack - Love You
TTITLE14=Owen, Jake - Startin' With Me
EXTD=
EXTT0=
EXTT1=
EXTT2=
EXTT3=
EXTT4=
EXTT5=
EXTT6=
EXTT7=
EXTT8=
EXTT9=
EXTT10=
EXTT11=
EXTT12=
EXTT13=
EXTT14=
PLAYORDER=
